<?xml version="1.0" standalone="no"?>
<!DOCTYPE svg PUBLIC "-//W3C//DTD SVG 20010904//EN"
 "http://www.w3.org/TR/2001/REC-SVG-20010904/DTD/svg10.dtd">
<svg version="1.0" xmlns="http://www.w3.org/2000/svg"
 width="1000.000000pt" height="1000.000000pt" viewBox="0 0 1000.000000 1000.000000"
 preserveAspectRatio="xMidYMid meet">
<metadata>
Created by potrace 1.11, written by Peter Selinger 2001-2013
</metadata>
<g transform="translate(0.000000,1000.000000) scale(0.100000,-0.100000)"
fill="#000000" stroke="none">
<path d="M5390 8159 c0 -5 5 -7 10 -4 6 3 10 8 10 11 0 2 -4 4 -10 4 -5 0 -10
-5 -10 -11z"/>
<path d="M5835 7920 c3 -5 8 -10 11 -10 2 0 4 5 4 10 0 6 -5 10 -11 10 -5 0
-7 -4 -4 -10z"/>
<path d="M4227 7839 c7 -7 15 -10 18 -7 3 3 -2 9 -12 12 -14 6 -15 5 -6 -5z"/>
<path d="M7218 7844 c-2 -1 -21 -5 -43 -8 -55 -7 -85 -16 -119 -37 -16 -10
-34 -15 -39 -12 -6 3 -7 2 -4 -4 8 -12 -31 -46 -43 -38 -6 3 -7 0 -5 -8 3 -7
-3 -21 -14 -31 -11 -10 -18 -23 -15 -27 3 -5 1 -9 -4 -9 -17 0 -45 -108 -46
-182 -1 -27 -5 -48 -9 -48 -5 0 -6 -4 -2 -9 3 -5 1 -13 -5 -16 -8 -5 -8 -11
-1 -19 6 -7 9 -15 7 -17 -2 -2 -7 -42 -10 -89 -4 -47 -9 -116 -13 -154 -5 -63
-4 -68 13 -63 24 7 106 29 119 31 68 14 133 29 145 33 15 6 31 9 73 17 12 2
22 5 22 6 0 1 8 3 18 6 35 8 43 10 67 18 62 19 113 49 155 92 25 26 45 53 45
60 0 8 4 14 9 14 5 0 12 15 16 33 4 17 9 39 11 47 39 152 -53 331 -201 388
-32 13 -122 31 -127 26z m119 -94 c100 -49 148 -125 152 -238 2 -48 -3 -74
-22 -115 -29 -61 -62 -101 -76 -92 -6 3 -9 0 -6 -7 6 -16 -65 -50 -111 -53
-17 -1 -36 -5 -43 -9 -6 -4 -11 -1 -11 6 0 8 -3 9 -8 3 -8 -12 -13 -12 -62 -1
-56 14 -135 70 -124 88 3 5 0 7 -7 6 -17 -4 -60 72 -56 99 2 12 0 20 -4 17
-16 -9 -9 106 8 144 9 20 17 40 17 43 2 12 53 66 85 88 81 58 176 65 268 21z"/>
<path d="M7257 7654 c-51 -27 -61 -77 -24 -119 48 -56 141 -17 135 56 -4 53
-64 87 -111 63z"/>
<path d="M7058 7528 c-16 -6 -28 -14 -28 -20 0 -6 -7 -7 -16 -4 -29 11 -9 -10
155 -163 24 -22 48 -41 52 -41 4 0 14 17 22 39 47 116 -64 229 -185 189z"/>
<path d="M5553 7805 c0 -8 4 -12 9 -9 5 3 6 10 3 15 -9 13 -12 11 -12 -6z"/>
<path d="M5106 7798 c3 -4 9 -8 15 -8 5 0 9 4 9 8 0 5 -7 9 -15 9 -8 0 -12 -4
-9 -9z"/>
<path d="M6555 7761 c-3 -5 -2 -12 3 -15 5 -3 9 1 9 9 0 17 -3 19 -12 6z"/>
<path d="M5114 7686 c1 -8 5 -18 8 -22 4 -3 5 1 4 10 -1 8 -5 18 -8 22 -4 3
-5 -1 -4 -10z"/>
<path d="M3580 7686 c0 -2 8 -10 18 -17 15 -13 16 -12 3 4 -13 16 -21 21 -21
13z"/>
<path d="M5270 7680 c0 -5 5 -10 11 -10 5 0 7 5 4 10 -3 6 -8 10 -11 10 -2 0
-4 -4 -4 -10z"/>
<path d="M5680 7680 c-9 -6 -10 -10 -3 -10 6 0 15 5 18 10 8 12 4 12 -15 0z"/>
<path d="M6240 7660 c-9 -6 -10 -10 -3 -10 6 0 15 5 18 10 8 12 4 12 -15 0z"/>
<path d="M4476 7633 c-6 -14 -5 -15 5 -6 7 7 10 15 7 18 -3 3 -9 -2 -12 -12z"/>
<path d="M4797 7558 c-7 -3 -46 -8 -87 -11 -41 -2 -82 -7 -90 -10 -13 -4 -133
-26 -180 -32 -8 -1 -24 -6 -34 -10 -11 -5 -34 -9 -52 -9 -18 -1 -30 -4 -29 -7
4 -5 -81 -31 -110 -35 -5 0 -21 -6 -35 -11 -14 -6 -28 -9 -32 -6 -5 2 -8 0 -8
-5 0 -5 -20 -15 -45 -22 -24 -7 -43 -15 -41 -19 4 -6 -5 -9 -58 -14 -13 -1
-22 -5 -19 -9 4 -7 -5 -10 -23 -7 -4 0 -10 -3 -13 -8 -12 -16 -142 -73 -153
-67 -7 4 -8 2 -4 -4 8 -14 -30 -35 -47 -26 -6 4 -9 4 -5 -1 6 -7 -73 -65 -88
-65 -3 0 -20 -11 -38 -25 -26 -19 -35 -22 -45 -12 -10 9 -11 9 -6 -5 4 -11 -1
-21 -17 -29 -13 -7 -26 -12 -30 -11 -5 1 -8 -2 -8 -7 0 -5 -24 -26 -52 -47
-29 -21 -55 -42 -56 -46 -2 -5 -8 -6 -13 -2 -5 3 -9 0 -9 -6 0 -6 -5 -8 -12
-4 -6 4 -8 3 -5 -4 4 -5 -8 -22 -25 -37 -40 -32 -268 -255 -262 -255 3 0 -1
-6 -8 -14 -7 -8 -17 -11 -23 -8 -5 3 -7 2 -3 -3 4 -4 -21 -44 -56 -89 -35 -44
-85 -114 -111 -154 -38 -57 -51 -70 -61 -61 -9 8 -14 8 -14 1 0 -6 5 -12 12
-14 8 -3 6 -15 -9 -39 -12 -19 -34 -56 -48 -84 -15 -27 -32 -53 -37 -56 -5 -3
-10 -9 -10 -12 0 -23 -12 -46 -21 -40 -5 3 -7 1 -3 -5 8 -13 -23 -94 -33 -87
-4 2 -7 -9 -6 -25 1 -17 -2 -30 -7 -30 -4 0 -8 -7 -8 -16 0 -11 -5 -14 -17 -9
-14 5 -15 3 -6 -5 14 -15 -23 -134 -39 -123 -7 3 -8 1 -4 -5 8 -13 -43 -215
-56 -220 -4 -2 -6 -7 -3 -12 3 -5 0 -32 -7 -62 -6 -29 -11 -59 -9 -65 1 -7 -3
-13 -9 -13 -6 0 -9 -4 -6 -8 3 -5 -2 -64 -10 -133 -25 -211 -18 -503 16 -713
5 -33 7 -62 5 -64 -3 -3 0 -11 5 -18 6 -6 12 -32 13 -57 1 -25 5 -43 10 -40 4
2 7 -8 7 -22 0 -15 4 -34 9 -44 6 -10 12 -28 14 -42 2 -13 9 -37 16 -52 6 -16
9 -32 6 -37 -3 -5 0 -10 6 -12 6 -2 12 -16 12 -31 1 -15 5 -27 10 -27 4 0 7
-6 7 -14 0 -7 20 -60 45 -117 25 -57 43 -109 40 -117 -2 -7 -1 -11 4 -8 9 6
26 -22 23 -36 -1 -5 2 -8 7 -8 5 0 18 -21 29 -47 12 -27 30 -61 41 -77 11 -17
18 -33 15 -38 -3 -4 -1 -8 4 -8 15 0 63 -80 56 -92 -4 -7 -3 -8 4 -4 13 8 45
-48 34 -59 -4 -3 -2 -5 4 -3 6 2 44 -40 84 -92 40 -52 137 -158 214 -235 77
-77 139 -144 138 -148 -1 -5 1 -6 6 -3 9 5 178 -123 175 -133 -1 -4 3 -8 10
-8 15 0 211 -123 215 -135 2 -4 7 -6 12 -3 5 3 16 -3 26 -12 10 -10 19 -16 21
-14 5 4 97 -42 101 -52 2 -4 7 -5 12 -2 5 3 16 -3 26 -12 10 -10 18 -16 18
-14 2 8 76 -21 76 -29 0 -5 7 -7 15 -4 8 4 15 2 15 -3 0 -5 6 -10 13 -10 25 0
116 -37 111 -45 -3 -4 1 -6 8 -3 17 6 145 -30 166 -47 10 -9 13 -9 9 -1 -6 9
1 9 25 2 47 -15 60 -17 86 -18 13 -1 20 -5 17 -11 -3 -5 0 -7 8 -4 8 3 41 1
73 -5 136 -24 250 -33 432 -32 152 1 192 -1 187 -11 -4 -7 -1 -6 7 3 8 10 39
18 88 23 134 13 226 30 380 72 50 13 97 21 102 17 7 -4 8 -1 3 7 -6 10 -3 12
13 8 12 -3 22 -3 24 1 2 4 48 25 103 46 55 21 143 59 195 84 52 25 101 45 108
44 7 -1 11 2 8 5 -10 9 94 63 106 56 6 -4 8 -3 5 3 -6 10 3 17 25 22 4 1 18
12 32 24 13 13 37 29 53 37 15 8 34 21 42 28 27 26 60 44 70 37 6 -3 9 0 6 7
-2 7 25 35 61 63 36 28 81 67 101 87 20 21 40 35 45 32 5 -3 7 -1 6 4 -2 5 42
56 97 114 55 57 109 116 119 130 11 15 23 25 26 23 4 -2 7 1 7 8 0 17 114 173
124 170 4 -2 6 3 3 11 -3 7 3 22 13 31 10 10 18 21 18 24 1 19 28 50 37 45 7
-4 8 -3 4 5 -4 6 10 42 30 81 32 59 40 68 53 57 14 -10 14 -10 3 5 -12 15 -8
29 26 105 22 48 52 122 67 163 16 41 32 77 37 78 4 2 6 7 3 12 -7 11 40 162
47 154 4 -3 4 3 1 15 -3 11 -2 29 2 38 5 10 8 21 7 24 0 3 4 23 9 45 5 21 12
59 15 84 3 25 8 52 11 60 8 20 9 34 11 108 1 35 5 61 10 59 10 -7 3 414 -9
492 -7 48 -6 68 3 79 9 11 10 14 1 9 -12 -7 -13 -1 -27 83 -2 14 -14 66 -26
117 -12 51 -18 98 -14 104 4 7 3 9 -3 6 -12 -8 -26 49 -16 67 3 6 2 8 -2 4 -9
-9 -47 90 -40 103 3 4 2 9 -3 11 -7 3 -62 136 -62 151 0 4 -6 20 -14 36 -9 16
-12 31 -9 35 4 3 1 6 -6 6 -7 0 -9 5 -6 10 3 6 1 10 -5 10 -6 0 -8 5 -5 10 3
6 1 10 -6 10 -8 0 -7 5 2 17 8 9 9 14 3 10 -14 -8 -58 69 -48 85 4 7 4 10 -1
6 -8 -8 -55 52 -55 71 0 5 -4 11 -8 13 -18 7 -142 200 -136 210 4 6 3 8 -4 4
-13 -8 -54 43 -45 57 3 6 1 7 -5 3 -13 -8 -35 28 -24 39 4 5 2 5 -4 2 -12 -7
-161 151 -156 166 1 5 -1 6 -6 3 -12 -7 -84 68 -75 78 5 4 1 6 -7 4 -8 -2 -14
3 -12 10 1 8 -1 11 -6 8 -7 -4 -45 23 -112 82 -40 35 -67 55 -97 73 -18 12
-30 26 -27 31 4 7 2 8 -4 4 -11 -7 -126 64 -149 93 -7 8 -13 11 -13 7 0 -4
-22 5 -50 20 -27 15 -47 31 -44 35 3 5 -1 6 -9 4 -7 -3 -30 6 -50 19 -20 14
-37 24 -37 21 0 -2 -26 9 -57 24 -32 16 -68 32 -81 35 -12 4 -20 11 -17 16 3
4 -4 6 -15 3 -12 -3 -20 0 -20 6 0 7 -4 9 -10 6 -5 -3 -10 -1 -10 5 0 6 -4 9
-9 6 -8 -5 -65 11 -111 31 -8 3 -17 7 -20 7 -65 16 -139 40 -136 45 2 3 -16 7
-40 7 -24 1 -50 7 -57 13 -8 6 -16 9 -19 6 -2 -3 -40 2 -84 11 -43 8 -106 17
-139 20 -33 2 -75 7 -94 10 -49 8 -400 10 -414 2z"/>
<path d="M2876 7287 c3 -10 9 -15 12 -12 3 3 0 11 -7 18 -10 9 -11 8 -5 -6z"/>
<path d="M6716 7287 c3 -10 9 -15 12 -12 3 3 0 11 -7 18 -10 9 -11 8 -5 -6z"/>
<path d="M6507 7199 c7 -7 15 -10 18 -7 3 3 -2 9 -12 12 -14 6 -15 5 -6 -5z"/>
<path d="M6715 7160 c3 -5 8 -10 11 -10 2 0 4 5 4 10 0 6 -5 10 -11 10 -5 0
-7 -4 -4 -10z"/>
<path d="M7036 7073 c-6 -14 -5 -15 5 -6 7 7 10 15 7 18 -3 3 -9 -2 -12 -12z"/>
<path d="M3075 7051 c-3 -5 -2 -12 3 -15 5 -3 9 1 9 9 0 17 -3 19 -12 6z"/>
<path d="M6913 7045 c0 -8 4 -12 9 -9 5 3 6 10 3 15 -9 13 -12 11 -12 -6z"/>
<path d="M7155 7001 c-3 -5 -2 -12 3 -15 5 -3 9 1 9 9 0 17 -3 19 -12 6z"/>
<path d="M7269 6843 c-13 -16 -12 -17 4 -4 9 7 17 15 17 17 0 8 -8 3 -21 -13z"/>
<path d="M2140 6814 c-87 -32 -129 -89 -126 -171 2 -86 65 -149 157 -158 30
-3 60 -8 67 -10 7 -3 10 0 7 5 -3 6 -1 10 5 10 26 0 82 49 100 87 38 82 16
164 -58 212 -36 24 -118 37 -152 25z"/>
<path d="M2950 6761 c0 -6 4 -13 10 -16 6 -3 7 1 4 9 -7 18 -14 21 -14 7z"/>
<path d="M1906 6642 c-3 -5 1 -9 9 -9 8 0 12 4 9 9 -3 4 -7 8 -9 8 -2 0 -6 -4
-9 -8z"/>
<path d="M7426 6598 c3 -5 10 -6 15 -3 13 9 11 12 -6 12 -8 0 -12 -4 -9 -9z"/>
<path d="M2835 6440 c3 -5 8 -10 11 -10 2 0 4 5 4 10 0 6 -5 10 -11 10 -5 0
-7 -4 -4 -10z"/>
<path d="M7246 6402 c-3 -5 1 -9 9 -9 8 0 12 4 9 9 -3 4 -7 8 -9 8 -2 0 -6 -4
-9 -8z"/>
<path d="M7390 6336 c0 -2 8 -10 18 -17 15 -13 16 -12 3 4 -13 16 -21 21 -21
13z"/>
<path d="M2716 6318 c3 -5 10 -6 15 -3 13 9 11 12 -6 12 -8 0 -12 -4 -9 -9z"/>
<path d="M2266 6238 c3 -5 10 -6 15 -3 13 9 11 12 -6 12 -8 0 -12 -4 -9 -9z"/>
<path d="M7630 6121 c0 -6 4 -13 10 -16 6 -3 7 1 4 9 -7 18 -14 21 -14 7z"/>
<path d="M2235 6000 c-3 -5 -1 -10 4 -10 6 0 11 5 11 10 0 6 -2 10 -4 10 -3 0
-8 -4 -11 -10z"/>
<path d="M7435 5880 c3 -5 8 -10 11 -10 2 0 4 5 4 10 0 6 -5 10 -11 10 -5 0
-7 -4 -4 -10z"/>
<path d="M7706 5878 c3 -5 10 -6 15 -3 13 9 11 12 -6 12 -8 0 -12 -4 -9 -9z"/>
<path d="M8110 5720 c0 -5 5 -10 11 -10 5 0 7 5 4 10 -3 6 -8 10 -11 10 -2 0
-4 -4 -4 -10z"/>
<path d="M2274 5526 c1 -8 5 -18 8 -22 4 -3 5 1 4 10 -1 8 -5 18 -8 22 -4 3
-5 -1 -4 -10z"/>
<path d="M8073 5365 c0 -8 4 -12 9 -9 5 3 6 10 3 15 -9 13 -12 11 -12 -6z"/>
<path d="M7906 5358 c3 -5 10 -6 15 -3 13 9 11 12 -6 12 -8 0 -12 -4 -9 -9z"/>
<path d="M7760 5200 c-9 -6 -10 -10 -3 -10 6 0 15 5 18 10 8 12 4 12 -15 0z"/>
<path d="M7593 5115 c0 -8 4 -12 9 -9 5 3 6 10 3 15 -9 13 -12 11 -12 -6z"/>
<path d="M2230 5076 c7 -7 13 -7 20 0 6 6 3 10 -10 10 -13 0 -16 -4 -10 -10z"/>
<path d="M7710 4966 c0 -2 7 -7 16 -10 8 -3 12 -2 9 4 -6 10 -25 14 -25 6z"/>
<path d="M2099 4713 c-13 -16 -12 -17 4 -4 9 7 17 15 17 17 0 8 -8 3 -21 -13z"/>
<path d="M1786 4598 c3 -5 10 -6 15 -3 13 9 11 12 -6 12 -8 0 -12 -4 -9 -9z"/>
<path d="M7676 4522 c-3 -5 1 -9 9 -9 8 0 12 4 9 9 -3 4 -7 8 -9 8 -2 0 -6 -4
-9 -8z"/>
<path d="M7669 4203 c-13 -16 -12 -17 4 -4 9 7 17 15 17 17 0 8 -8 3 -21 -13z"/>
<path d="M7734 4080 c0 -13 4 -16 10 -10 7 7 7 13 0 20 -6 6 -10 3 -10 -10z"/>
<path d="M2554 4000 c0 -13 4 -16 10 -10 7 7 7 13 0 20 -6 6 -10 3 -10 -10z"/>
<path d="M2613 4005 c0 -8 4 -12 9 -9 5 3 6 10 3 15 -9 13 -12 11 -12 -6z"/>
<path d="M7546 3802 c-3 -5 1 -9 9 -9 8 0 12 4 9 9 -3 4 -7 8 -9 8 -2 0 -6 -4
-9 -8z"/>
<path d="M7553 3725 c0 -8 4 -12 9 -9 5 3 6 10 3 15 -9 13 -12 11 -12 -6z"/>
<path d="M7870 3560 c0 -5 5 -10 11 -10 5 0 7 5 4 10 -3 6 -8 10 -11 10 -2 0
-4 -4 -4 -10z"/>
<path d="M7313 3515 c0 -8 4 -12 9 -9 5 3 6 10 3 15 -9 13 -12 11 -12 -6z"/>
<path d="M7755 3409 c-4 -6 -5 -12 -2 -15 2 -3 7 2 10 11 7 17 1 20 -8 4z"/>
<path d="M7393 3395 c0 -8 4 -12 9 -9 5 3 6 10 3 15 -9 13 -12 11 -12 -6z"/>
<path d="M7239 3273 c-13 -16 -12 -17 4 -4 9 7 17 15 17 17 0 8 -8 3 -21 -13z"/>
<path d="M6919 2978 c-5 -18 -6 -38 -1 -34 7 8 12 36 6 36 -2 0 -4 -1 -5 -2z"/>
<path d="M6985 2880 c-3 -6 1 -7 9 -4 18 7 21 14 7 14 -6 0 -13 -4 -16 -10z"/>
<path d="M3270 2766 c0 -2 7 -7 16 -10 8 -3 12 -2 9 4 -6 10 -25 14 -25 6z"/>
<path d="M6380 2766 c0 -2 8 -10 18 -17 15 -13 16 -12 3 4 -13 16 -21 21 -21
13z"/>
<path d="M3669 2723 c-13 -16 -12 -17 4 -4 9 7 17 15 17 17 0 8 -8 3 -21 -13z"/>
<path d="M6470 2696 c0 -2 8 -10 18 -17 15 -13 16 -12 3 4 -13 16 -21 21 -21
13z"/>
<path d="M6315 2641 c-3 -5 -2 -12 3 -15 5 -3 9 1 9 9 0 17 -3 19 -12 6z"/>
<path d="M3866 2482 c-3 -5 1 -9 9 -9 8 0 12 4 9 9 -3 4 -7 8 -9 8 -2 0 -6 -4
-9 -8z"/>
<path d="M5750 2480 c0 -5 5 -10 11 -10 5 0 7 5 4 10 -3 6 -8 10 -11 10 -2 0
-4 -4 -4 -10z"/>
<path d="M6066 2478 c3 -5 10 -6 15 -3 13 9 11 12 -6 12 -8 0 -12 -4 -9 -9z"/>
<path d="M6660 2480 c-9 -6 -10 -10 -3 -10 6 0 15 5 18 10 8 12 4 12 -15 0z"/>
<path d="M6305 2440 c-3 -6 1 -7 9 -4 18 7 21 14 7 14 -6 0 -13 -4 -16 -10z"/>
<path d="M4110 2416 c0 -2 8 -10 18 -17 15 -13 16 -12 3 4 -13 16 -21 21 -21
13z"/>
<path d="M6658 2410 c-32 -10 -86 -47 -110 -75 -26 -32 -47 -108 -42 -160 4
-58 43 -128 84 -152 17 -9 30 -21 30 -25 0 -4 3 -7 8 -7 4 1 9 0 12 -1 20 -7
53 -11 98 -11 156 0 260 179 187 322 -48 92 -165 140 -267 109z"/>
<path d="M4670 2406 c0 -2 7 -7 16 -10 8 -3 12 -2 9 4 -6 10 -25 14 -25 6z"/>
<path d="M5119 2393 c-13 -16 -12 -17 4 -4 9 7 17 15 17 17 0 8 -8 3 -21 -13z"/>
<path d="M4230 2376 c0 -2 8 -10 18 -17 15 -13 16 -12 3 4 -13 16 -21 21 -21
13z"/>
<path d="M5990 2376 c0 -2 8 -10 18 -17 15 -13 16 -12 3 4 -13 16 -21 21 -21
13z"/>
<path d="M4133 2315 c0 -8 4 -12 9 -9 5 3 6 10 3 15 -9 13 -12 11 -12 -6z"/>
<path d="M4193 2285 c0 -8 4 -12 9 -9 5 3 6 10 3 15 -9 13 -12 11 -12 -6z"/>
<path d="M3910 2281 c0 -6 4 -13 10 -16 6 -3 7 1 4 9 -7 18 -14 21 -14 7z"/>
<path d="M5956 2278 c3 -5 10 -6 15 -3 13 9 11 12 -6 12 -8 0 -12 -4 -9 -9z"/>
<path d="M6000 2240 c-9 -6 -10 -10 -3 -10 6 0 15 5 18 10 8 12 4 12 -15 0z"/>
<path d="M5635 2211 c-3 -5 -2 -12 3 -15 5 -3 9 1 9 9 0 17 -3 19 -12 6z"/>
<path d="M5510 2200 c0 -5 5 -10 11 -10 5 0 7 5 4 10 -3 6 -8 10 -11 10 -2 0
-4 -4 -4 -10z"/>
<path d="M6015 2074 c-50 -46 -16 -124 53 -124 54 0 86 70 52 113 -28 35 -74
40 -105 11z"/>
<path d="M4516 1882 c-3 -5 1 -9 9 -9 8 0 12 4 9 9 -3 4 -7 8 -9 8 -2 0 -6 -4
-9 -8z"/>
<path d="M5076 1802 c-3 -5 1 -9 9 -9 8 0 12 4 9 9 -3 4 -7 8 -9 8 -2 0 -6 -4
-9 -8z"/>
</g>
</svg>
